<svg xmlns="http://www.w3.org/2000/svg" xmlns:xlink="http://www.w3.org/1999/xlink" xml:space="preserve" style="shape-rendering:geometricPrecision;text-rendering:geometricPrecision;image-rendering:optimizeQuality;" viewBox="0 0 100 125" x="0px" y="0px" fill-rule="evenodd" clip-rule="evenodd"><defs><style type="text/css">
  
  </style></defs><g><path stroke="#f1f1f1" fill="#f1f1f1" d="M45.5838 19.2025c5.95398,0 7.73982,10.108 1.09253,10.108 -6.77722,0 -7.67132,-10.108 -1.09253,-10.108zm-22.4718 5.55595c-2.87719,0.14882 -4.40082,3.45948 -7.19415,3.35672 0.553941,-4.0394 3.78074,-6.5847 7.19415,-3.35672zm-7.22722 3.62838c-0.04252,0.411027 -0.0519689,0.825597 -0.0271656,1.23544 2.44018,0.310632 6.92958,0.509059 8.94456,-1.04528 -0.0236222,-1.3134 -0.532681,-2.58427 -1.4256,-3.5516 -3.06617,-0.03189 -4.54728,3.49373 -7.49179,3.36144zm0.312995 2.94569c0.368507,1.04174 1.06418,1.92639 2.02797,2.45317 -1.26143,-0.251577 -1.9512,-1.3134 -2.3386,-2.51577 -0.346066,-0.0448822 -0.670871,0.0248033 -0.912999,0.275199l-0.172442 -0.217325c0.270475,-0.26575 0.62717,-0.368507 1.00158,-0.341341 -0.0980323,-0.362601 -0.164175,-0.738195 -0.199608,-1.12087 -0.473626,-0.0696856 -0.972055,-0.157088 -1.41852,-0.346066l-0.0271656 -0.305908c0.419295,0.222049 0.969693,0.303546 1.42442,0.37205 -0.0224411,-0.408665 -0.0118111,-0.819691 0.0295278,-1.22718 -0.97796,-0.165356 -1.15158,-1.07835 -1.09135,-1.93939 -0.288191,0.623627 -0.450004,1.29804 -0.485437,1.98191l-1.12914 0.338979c0.209057,2.23466 0.220868,5.38705 3.22325,7.18943 3.43703,2.0634 12.0544,0.570477 15.9237,0.509059l8.08235 0.105119c2.05395,-1.17757 6.33903,-4.35476 1.98191,-6.75123 -1.93702,-0.360239 -8.23471,2.23703 -10.382,2.63978l-9.24929 0.670871c-2.52994,0.598824 -4.08428,-1.1693 -6.28824,-1.77049zm8.60086 -2.43781c-0.119292,2.98585 -1.65592,4.04058 -3.07561,4.0772 -1.88624,0.0496067 -3.9272,-1.58741 -5.62327,-1.94293 -0.1063,-0.362601 -0.178348,-0.740557 -0.218506,-1.12796 2.59018,0.3189 6.65202,0.413389 8.91739,-1.00631zm-9.92134 -3.1264c0.742919,-1.15631 1.92167,-2.00198 3.25987,-2.32797 -1.42678,1.10198 -2.25238,2.89018 -2.49215,4.64649 -1.06891,-0.194883 -0.907094,-1.52127 -0.767723,-2.31852zm62.4643 2.44136c-1.4693,2.3764 -0.823235,0.124017 -1.69844,-0.485437 -0.6378,1.34529 -0.70158,1.79175 -2.38348,1.79175 0,-14.0505 -5.04335,-14.23 -6.38863,-19.447 -1.39607,-5.4154 24.9687,-6.57761 19.3502,1.77994 -3.85751,5.73784 -3.39097,17.6706 -4.06539,18.4879 -0.518508,0 -1.19174,-1.09961 -1.70907,-1.36891 -1.02402,-0.533862 -0.951976,0.284648 -1.79883,0.284648 -0.475988,0 -1.05473,-0.92481 -1.30631,-1.04292zm2.33151 -0.302365c0.44646,0.389767 1.23662,-0.559847 1.04883,-0.963787 -0.146458,0.0590556 -0.975598,0.904732 -1.04883,0.963787zm3.49255 -14.1107c-0.338979,0.0862212 -0.681501,0.162993 -1.0252,0.230317 0.237403,0.377956 0.865755,0.0448822 1.0252,-0.230317zm-4.21184 0.583469l-2.08821 -0.00118111c-0.101576,0.224411 -0.325987,0.713391 -0.545674,0.957882 1.59686,1.18347 2.06222,1.10552 2.63388,-0.9567zm-4.22129 -0.194883c-0.537406,-0.0779534 -1.07363,-0.174805 -1.60277,-0.298821 0.197246,5.22406 2.6386,3.14766 1.60277,0.298821zm-2.36104 -0.493705c-0.132285,-0.0366145 -0.264569,-0.0755911 -0.394491,-0.11693 0.119292,0.19134 0.264569,0.41457 0.386224,0.579926 0.00590556,-0.153545 0.00944889,-0.30827 0.00826778,-0.462996zm-2.3764 -0.474807c-0.23386,-0.09567 -0.465358,-0.199608 -0.69095,-0.311813 0.0897645,0.887015 2.51813,4.15279 3.08979,5.07878 0.702761,-2.17325 -1.11261,-2.27246 -2.39884,-4.76697zm2.88427 5.82997c-0.0437011,0.284648 0.0897645,1.16221 0.216143,1.70907 0.35079,-0.713391 0.705124,-1.18111 -0.216143,-1.70907zm-3.1831 -7.55911c-0.100394,-0.490161 -0.328349,-0.989772 -0.536225,-1.44332 -0.538587,0.592918 -0.0602367,1.09371 0.536225,1.44332zm0.0838589 -1.9075c1.52836,3.71342 1.69608,2.23348 1.39489,-0.557485 -0.471264,0.139371 -0.966149,0.317719 -1.39489,0.557485zm11.2454 -0.954338c-0.689769,-0.115749 -1.38899,-0.193702 -2.08702,-0.243309l0.00590556 4.09491c0.604729,-0.363782 1.80828,-3.02837 2.08112,-3.85161zm-0.877566 3.99216c0.239766,-0.0295278 0.479531,-0.06378 0.719297,-0.101576 0.504335,-1.04883 1.19765,-2.48742 1.43151,-3.62838 -0.118111,-0.0295278 -0.236222,-0.0578745 -0.355515,-0.0838589 -0.58465,1.27442 -1.16576,2.55947 -1.79529,3.81381zm3.93428 -3.09333c-0.29764,-0.155907 -0.618903,-0.282286 -0.936622,-0.389767 -0.196065,0.439374 -0.993315,2.0634 -0.679139,2.45317 0.41457,-0.412208 1.20355,-1.51773 1.61576,-2.0634zm-0.585831 2.33033c0.876385,-0.334255 2.13191,-0.986228 1.2697,-1.85198 -0.437011,0.581107 -0.884653,1.22245 -1.2697,1.85198zm-4.13625 7.46935c-0.135828,-0.135828 -1.08308,2.276 -0.145277,2.276 1.13623,0 1.00749,-1.6382 0.145277,-2.276zm-1.38899 -1.69253c-2.31025,2.29726 2.33151,3.11813 0,0zm0.0933078 -4.85319l-0.129922 -4.00987 -1.35119 4.02641 1.48111 -0.0165356zm-5.10949 -0.592918c-0.219687,-0.0224411 0.492524,-0.34016 0.324806,-0.41457 -0.146458,0.152363 -1.18111,0.347247 -1.20001,0.553941 0.344885,0.0755911 0.69095,0.140552 1.03938,0.194883 -0.0555122,-0.126379 -0.119292,-0.264569 -0.164175,-0.334255zm0.141733 -3.58586c-0.454728,0.0720478 -0.908275,0.160631 -1.35592,0.270475 -0.101576,2.69057 0.548036,2.83703 1.35592,-0.270475zm8.80873 19.4435c0.379137,1.6571 -0.589375,0.937803 -0.845676,0.153545 -0.0862212,-0.26575 0.272837,-1.30631 0.213781,-1.49293l0.631895 1.33938zm-3.32365 0.307089c1.86498,-3.56578 -2.70002,-2.43781 0,0zm-4.6087 0.26575c0.631895,-0.18071 1.60277,-1.84135 -0.118111,-2.12954 0.00708667,0.525595 0.0448822,1.73623 0.118111,2.12954zm2.8701 -1.21182c0,-0.434649 -1.02048,-2.04923 -1.02048,-0.908275 0,0.859849 1.02048,1.6323 1.02048,0.908275zm2.77797 -0.507878c0.4252,-0.0578745 1.7386,-1.15631 0.8504,-1.45159 -0.416932,0 -0.96733,1.22718 -0.8504,1.45159zm-2.33742 -0.735833c1.99608,-2.12954 -1.92757,-2.66931 0,0zm-2.44608 -2.43191c-0.348428,3.41223 1.81064,2.13899 0,0zm7.22014 0.87166c-0.501972,0.90355 -0.402759,1.04174 -0.0614178,2.04923l0.0614178 -2.04923zm-2.13427 -0.302365c0,-2.07403 -1.976,1.18347 -0.772447,1.43269 0.324806,0 0.772447,-1.12914 0.772447,-1.43269zm1.42442 -0.380318c0,-0.651974 -1.4445,0.381499 -0.289372,1.08662 0.144096,-0.111024 0.289372,-0.889377 0.289372,-1.08662zm-5.02799 0.349609c0.688588,-0.252758 0.199608,-2.12482 -0.415751,-2.16262 -1.18938,-0.07441 -0.311813,1.8945 0.415751,2.16262zm1.93584 -0.199608c2.60553,-4.13625 -2.40711,-1.09489 0,0zm2.50632 -1.84844c0,-1.17521 -0.58465,-0.816148 -0.664966,0.100394 -0.0685045,0.780715 0.664966,0.421657 0.664966,-0.100394zm0.894102 0.487799c0.125198,0.109843 0.278742,0.793707 0.433468,0.831503 0.0354333,-0.341341 -0.0153545,-1.32048 -0.0248033,-1.66773l-0.408665 0.836227zm-7.90046 2.76734c0.125198,0.0165356 0.20197,0.0578745 0.300002,0.0814967 0.0413389,-0.349609 0.0685045,-2.2571 0.0767723,-2.6953l-0.649611 -0.505516c0.0330711,0.823235 0.15945,2.60671 0.272837,3.11932zm0.989772 -3.25751c0.664966,-0.75473 0.331892,-1.31576 -0.452366,-1.7882 -0.764179,0.51024 -0.207876,1.44332 0.452366,1.7882zm2.36577 -0.0885834c0.711029,-0.321262 0.401578,-2.17679 -0.426381,-2.16262 -0.777171,0.0129922 -0.200789,1.73387 0.426381,2.16262zm4.28153 -2.59018c-0.204332,0.412208 -0.668509,1.52363 -0.206695,1.75395 0.341341,-0.12756 0.225592,-1.39962 0.206695,-1.75395zm0.787801 0.577564c-0.302365,0.160631 -0.225592,0.529138 -0.0933078,0.734651l0.0933078 -0.734651zm-6.24099 -1.01339c-0.210238,-0.177167 -0.707486,-0.55276 -0.94607,-0.679139l-0.333073 1.02875c0.557485,1.00749 0.990953,0.587012 1.27914,-0.349609zm4.6146 0.475988c0.643706,-0.134647 0.555122,-2.45671 0.0507878,-2.36695 -0.814967,0.142915 -0.908275,2.20514 -0.0507878,2.36695zm-6.58234 -0.641344c0.400397,-0.646068 0.140552,-1.01103 -0.380318,-1.48702 -0.108662,0.15945 -0.253939,0.558666 -0.305908,0.758274 0.298821,0.242128 0.444098,0.474807 0.686226,0.728746zm8.83826 -1.23308c-0.523232,0.535044 -1.11261,1.20001 -0.437011,1.51891l0.437011 -1.51891zm-5.55122 -0.731108c-1.24962,-0.399216 -1.27206,-1.36655 -2.04805,0.46772 1.17048,0.46772 1.35355,1.62285 2.04805,-0.46772zm2.00317 0.857487c2.1508,-2.86301 -1.79529,-2.60199 0,0zm1.99844 -1.20001c0.0602367,0.40394 0.314176,0.777171 0.448822,1.17166 0.79725,-0.99922 0.969693,-1.84253 -0.448822,-1.17166zm0.64843 -1.82836c-1.14332,-0.840952 -2.36104,0.703943 -1.09843,1.14568 0.598824,0.0141733 1.20828,-0.509059 1.09843,-1.14568zm2.39884 -0.942527c-0.553941,0.225592 -1.26025,1.3134 -1.68899,1.78466l0.755911 0.767723c0.271656,-0.621265 0.78662,-2.0197 0.933078,-2.55238zm-10.2863 -1.21773c0.569296,0.0649611 1.14213,0.108662 1.71497,0.134647 0.40394,-0.993315 1.21891,-3.43467 1.26851,-4.46342 -3.18073,-0.0236222 -4.63586,1.14686 -2.98349,4.32877zm-15.4312 32.0825l1.61104 6.14178 7.22958 3.40278c1.18938,0.820873 2.02324,2.39175 3.34963,3.02955 3.11813,0.620084 4.1646,-1.52363 2.49805,-3.56223 -2.15317,-1.88033 -3.23743,-1.14332 -4.94295,-1.85907l-9.74535 -7.15281zm-34.6361 38.1676c-0.917724,7.29336 6.58115,-2.40474 8.70597,-3.48074l18.9958 -4.42799c-3.09333,5.73784 -5.44965,8.46857 -5.87367,13.291l4.86027 5.25004c3.35199,1.92757 3.55515,-0.532681 3.18782,-2.51695l-2.13899 -5.83469c2.40829,-3.60239 12.9391,-17.4379 12.6639,-21.1797l-0.65906 -1.62639 0.608273 -0.90355 -6.24218 -14.2076 -11.9375 1.19174 -1.12442 4.0205 1.9075 15.0332 1.27088 0.140552 0.154726 1.05001c-23.5502,9.6674 -10.9383,5.09886 -21.4254,5.31618l-2.95396 8.88432zm30.7845 -13.8804l-0.0838589 -1.9382 0.910637 -0.672053 -0.484256 -4.865 2.25238 2.6138 -2.5949 4.86146zm2.83821 -23.1628l-0.0625989 -8.30203c0.477169,-6.61777 -9.24456,-8.14022 -13.8155,-7.75282 3.34491,2.86183 -0.494886,5.74965 -2.70711,7.45281l5.08941 10.6572 11.4958 -2.05513z"/></g></svg>